<svg xmlns="http://www.w3.org/2000/svg" width="32" height="32" viewBox="0 0 32 32"><defs><style>.a{fill:#fff;}</style></defs><path class="a" d="M212.914,209.957A2.957,2.957,0,1,1,209.957,207,2.957,2.957,0,0,1,212.914,209.957Zm0,0" transform="translate(-193.957 -193.957)"/><path class="a" d="M149.673,137.529a2.938,2.938,0,0,0-1.684-1.684,4.908,4.908,0,0,0-1.647-.305c-.936-.043-1.216-.052-3.585-.052s-2.649.009-3.585.052a4.911,4.911,0,0,0-1.647.306,2.939,2.939,0,0,0-1.684,1.684,4.911,4.911,0,0,0-.305,1.647c-.043.935-.052,1.216-.052,3.585s.009,2.649.052,3.585a4.909,4.909,0,0,0,.305,1.647,2.938,2.938,0,0,0,1.684,1.684,4.9,4.9,0,0,0,1.647.305c.935.043,1.216.052,3.585.052s2.65-.009,3.585-.052a4.9,4.9,0,0,0,1.647-.305,2.938,2.938,0,0,0,1.684-1.684,4.913,4.913,0,0,0,.305-1.647c.043-.936.052-1.216.052-3.585s-.009-2.649-.052-3.585A4.9,4.9,0,0,0,149.673,137.529Zm-6.916,9.787a4.555,4.555,0,1,1,4.555-4.555A4.555,4.555,0,0,1,142.758,147.317Zm4.736-8.226a1.065,1.065,0,1,1,1.065-1.065A1.065,1.065,0,0,1,147.493,139.09Zm0,0" transform="translate(-126.758 -126.761)"/><path class="a" d="M16,0A16,16,0,1,0,32,16,16,16,0,0,0,16,0Zm9.132,19.788a6.741,6.741,0,0,1-.427,2.23,4.7,4.7,0,0,1-2.687,2.687,6.745,6.745,0,0,1-2.23.427c-.98.045-1.293.055-3.788.055s-2.808-.011-3.788-.055a6.745,6.745,0,0,1-2.23-.427A4.7,4.7,0,0,1,7.3,22.018a6.739,6.739,0,0,1-.427-2.23c-.045-.98-.056-1.293-.056-3.788s.01-2.808.055-3.788a6.741,6.741,0,0,1,.427-2.23A4.7,4.7,0,0,1,9.982,7.295a6.747,6.747,0,0,1,2.23-.427c.98-.045,1.293-.055,3.788-.055s2.808.011,3.788.056a6.748,6.748,0,0,1,2.23.427,4.7,4.7,0,0,1,2.687,2.687,6.74,6.74,0,0,1,.427,2.23c.045.98.055,1.293.055,3.788S25.177,18.808,25.132,19.788Zm0,0"/></svg>