<svg xmlns="http://www.w3.org/2000/svg" xmlns:xlink="http://www.w3.org/1999/xlink" width="70.556" height="98.163" viewBox="0 0 70.556 98.163"><defs><style>.a{fill:url(#a);}.b{fill:#fff;font-size:28px;font-family:SegoeUI, Segoe UI;}</style><linearGradient id="a" x1="0.5" x2="0.5" y2="1" gradientUnits="objectBoundingBox"><stop offset="0" stop-color="#041e42"/><stop offset="1" stop-color="#1479b6"/></linearGradient></defs><path class="a" d="M209.974,176.494l4.49-7.284,8.1-2.761.9-8.51,6.093-5.988-2.895-8.054,2.895-8.054-6.093-6-.9-8.51-8.1-2.761-4.49-7.284-8.492,1.024-7.211-4.613-7.211,4.6-8.492-1.024-4.487,7.284-8.1,2.764-.9,8.506-6.082,6,2.895,8.054L159,151.951l6.1,6,.9,8.51,8.1,2.761,4.487,7.284,8.478-1.035,7.211,4.6,7.211-4.6Zm-40.524-32.608A24.814,24.814,0,1,1,194.263,168.7,24.814,24.814,0,0,1,169.449,143.886Z" transform="translate(-159 -107.7)"/><path class="a" d="M222.861,155a19.061,19.061,0,1,0,19.061,19.06A19.061,19.061,0,0,0,222.861,155Z" transform="translate(-187.59 -137.886)"/><path class="a" d="M188.571,297.261l-10.1,1.219-5.337-8.662-1.809-.619L163.5,313.659l14.089-.774,11.018,8.807,6.484-20.262Z" transform="translate(-161.872 -223.529)"/><path class="a" d="M284.118,289.8l-5.337,8.662-10.1-1.219L262.17,301.4l6.487,20.262,11.021-8.807,14.086.774-7.826-24.459Z" transform="translate(-224.841 -223.51)"/><text class="b" transform="translate(27.86 45.182)"><tspan x="0" y="0">1</tspan></text></svg>