<svg xmlns="http://www.w3.org/2000/svg" xmlns:xlink="http://www.w3.org/1999/xlink" width="75.587" height="105.163" viewBox="0 0 75.587 105.163"><defs><style>.a{fill:url(#a);}.b{fill:#fff;font-size:26px;font-family:SegoeUI, Segoe UI;}</style><linearGradient id="a" x1="0.5" x2="0.5" y2="1" gradientUnits="objectBoundingBox"><stop offset="0" stop-color="#041e42"/><stop offset="1" stop-color="#1479b6"/></linearGradient></defs><g transform="translate(-0.04)"><path class="a" d="M213.609,181.4l4.81-7.8,8.679-2.958.961-9.117,6.528-6.415-3.1-8.629,3.1-8.629-6.528-6.427-.961-9.117-8.679-2.958-4.81-7.8-9.1,1.1-7.725-4.942-7.725,4.931-9.1-1.1-4.807,7.8-8.679,2.961-.961,9.113L159,137.838l3.1,8.629-3.1,8.64,6.531,6.427.961,9.117,8.679,2.958,4.807,7.8,9.082-1.109,7.725,4.931,7.725-4.931Zm-43.414-34.933a26.583,26.583,0,1,1,26.583,26.583,26.583,26.583,0,0,1-26.583-26.583Z" transform="translate(-158.96 -107.7)"/><path class="a" d="M224.22,155a20.42,20.42,0,1,0,20.42,20.419A20.42,20.42,0,0,0,224.22,155Z" transform="translate(-186.394 -136.665)"/><path class="a" d="M190.359,297.836l-10.819,1.306-5.717-9.28-1.938-.663L163.5,315.4l15.094-.83,11.8,9.435,6.946-21.707Z" transform="translate(-161.716 -218.846)"/><path class="a" d="M285.683,289.844l-5.717,9.28-10.819-1.306-6.977,4.454,6.95,21.707,11.807-9.435,15.09.83-8.384-26.2Z" transform="translate(-222.139 -218.828)"/><text class="b" transform="translate(29.887 47.265)"><tspan x="0" y="0">5</tspan></text></g></svg>