<svg xmlns="http://www.w3.org/2000/svg" xmlns:xlink="http://www.w3.org/1999/xlink" width="79.181" height="110.163" viewBox="0 0 79.181 110.163"><defs><style>.a{fill:url(#a);}.b{fill:#fff;font-size:30px;font-family:SegoeUI, Segoe UI;}</style><linearGradient id="a" x1="0.5" x2="0.5" y2="1" gradientUnits="objectBoundingBox"><stop offset="0" stop-color="#041e42"/><stop offset="1" stop-color="#1479b6"/></linearGradient></defs><g transform="translate(-0.04)"><path class="a" d="M216.205,184.9l5.039-8.174,9.092-3.1,1.007-9.55,6.838-6.72-3.248-9.039,3.248-9.039-6.838-6.732L230.336,123l-9.092-3.1-5.039-8.174-9.53,1.149-8.093-5.177-8.093,5.165-9.53-1.149-5.035,8.174-9.092,3.1-1.007,9.546L159,139.271l3.248,9.039L159,157.361l6.842,6.732,1.007,9.55,9.092,3.1,5.035,8.174,9.514-1.161,8.093,5.165,8.093-5.165ZM170.727,148.31a27.847,27.847,0,1,1,27.847,27.847,27.847,27.847,0,0,1-27.847-27.847Z" transform="translate(-158.96 -107.7)"/><path class="a" d="M225.191,155a21.391,21.391,0,1,0,21.391,21.39A21.391,21.391,0,0,0,225.191,155Z" transform="translate(-185.569 -135.794)"/><path class="a" d="M191.636,298.247,180.3,299.615l-5.989-9.721-2.03-.694L163.5,316.649l15.812-.869,12.364,9.883,7.277-22.739Z" transform="translate(-161.633 -215.501)"/><path class="a" d="M286.8,289.877l-5.989,9.721-11.333-1.368-7.309,4.666,7.281,22.739,12.368-9.883,15.808.869-8.783-27.449Z" transform="translate(-220.237 -215.483)"/><text class="b" transform="translate(30.306 51.038)"><tspan x="0" y="0">4</tspan></text></g></svg>