<svg xmlns="http://www.w3.org/2000/svg" xmlns:xlink="http://www.w3.org/1999/xlink" width="74.868" height="104.163" viewBox="0 0 74.868 104.163"><defs><style>.a{fill:url(#a);}.b{fill:#fff;font-size:29px;font-family:SegoeUI, Segoe UI;}</style><linearGradient id="a" x1="0.5" x2="0.5" y2="1" gradientUnits="objectBoundingBox"><stop offset="0" stop-color="#041e42"/><stop offset="1" stop-color="#1479b6"/></linearGradient></defs><path class="a" d="M213.089,180.7l4.765-7.729,8.6-2.929.952-9.03,6.466-6.354-3.072-8.546,3.072-8.546L227.4,131.2l-.952-9.03-8.6-2.929-4.765-7.729-9.011,1.087-7.652-4.9-7.652,4.884-9.011-1.087L175,119.226l-8.6,2.933-.952,9.026L159,137.551l3.072,8.546L159,154.656l6.469,6.366.952,9.03,8.6,2.929,4.761,7.729,9-1.1,7.652,4.884,7.652-4.884Zm-43-34.6a26.331,26.331,0,1,1,26.331,26.331A26.331,26.331,0,0,1,170.088,146.1Z" transform="translate(-159 -107.7)"/><path class="a" d="M224.026,155a20.226,20.226,0,1,0,20.226,20.225A20.226,20.226,0,0,0,224.026,155Z" transform="translate(-186.6 -136.84)"/><path class="a" d="M190.1,297.754l-10.716,1.294-5.663-9.191-1.92-.657-8.3,25.954,14.951-.822,11.691,9.345,6.88-21.5Z" transform="translate(-161.772 -219.515)"/><path class="a" d="M285.46,289.838,279.8,299.03l-10.716-1.294-6.911,4.411,6.884,21.5,11.695-9.345,14.947.822-8.3-25.954Z" transform="translate(-222.559 -219.497)"/><text class="b" transform="translate(29.563 47.11)"><tspan x="0" y="0">2</tspan></text></svg>